<?xml version="1.0" encoding="utf-8"?>
<?xml-stylesheet type="text/xsl" href="rss1.xsl"?>
<rss version="2.0" xmlns:atom="http://www.w3.org/2005/Atom" xmlns:content="http://purl.org/rss/1.0/modules/content/" xmlns:dc="http://purl.org/dc/elements/1.1/" xmlns:media="http://search.yahoo.com/mrss/">
<channel>
 <title>Getty</title>
 <link>http://www.gettyimg.com/</link>
 <atom:link href="http://www.gettyimg.com/" rel="self" type="application/rss+xml" />

 
                <item>
                <title><![CDATA[【Music Videos】Katy Perry - The One That Got Away 1080P (Deville Epic Quick Hitter) (DJ Kevin West Vid) (Extended) (vjstreet Pool)]]></title>
                <link><![CDATA[https://sharemania.us/threads/katy-perry-the-one-that-got-away-1080p-deville-epic-quick-hitter-dj-kevin-west-vid-extended-vjstreet-pool.224643/]]></link>
                <description><![CDATA[<article>
<blockquote class="messageText SelectQuoteContainer ugc baseHtml">
<b><img src="https://i.imgur.com/iIK095f.jpg" class="bbCodeImage LbImage" alt="[​IMG]" data-url="https://i.imgur.com/iIK095f.jpg" style=""> <br>
<img src="https://i.imgur.com/vxyiSRc.jpg" class="bbCodeImage LbImage" alt="[​IMG]" data-url="https://i.imgur.com/vxyiSRc.jpg" style=""> <br>
Katy Perry - The One That Got Away (Deville Epic Quick Hitter) (DJ Kevin West Vid) (Extended)</b><br>
BPM 134<br>
Ripped From <a href="https://www.vjstreet.com/" target="_blank" class="externalLink" rel="nofollow">vjstreet</a><br>
<b><br>
[/URL]
<div class="bbCodeBlock bbCodeVfcHH HiddenContent">
<div class="attribution type">Hidden Content:</div>
<blockquote>You must reply before you can see the hidden data contained here.</blockquote>
</div></b>
<div class="messageTextEndMarker">&nbsp;</div>
</blockquote>
</article>]]></description>
                <author><![CDATA[gamerfronts]]></author>
                </item>

                
                <item>
                <title><![CDATA[【Apple Music】WEB-RiP - Burak Yeter - Oh My My (feat. Montiego &amp; Séb Mont) (1080p)]]></title>
                <link><![CDATA[https://sharemania.us/threads/burak-yeter-oh-my-my-feat-montiego-s%C3%A9b-mont-1080p.224645/]]></link>
                <description><![CDATA[<article>
<blockquote class="messageText SelectQuoteContainer ugc baseHtml">
<img src="https://i.imgur.com/McRWT4y.jpg" class="bbCodeImage LbImage" alt="[​IMG]" data-url="https://i.imgur.com/McRWT4y.jpg" style=""><br>
<br>
<div class="bbCodeBlock bbCodeCode">
<div class="type">Code:</div>
<pre>General
Complete name                  : C:\Users\asus\Desktop\Burak Yeter - Oh My My (feat. Montiego &amp; Séb Mont).mp4
Format                         : MPEG-4
Format profile                 : Base Media
Codec ID                       : isom (isom/iso2/avc1/mp41)
File size                      : 200 MiB
Duration                       : 2 min 42 s
Overall bit rate               : 10.3 Mb/s
Frame rate                     : 24.000 FPS
Movie name                     : Oh My My (feat. Montiego &amp; Séb Mont)
Performer                      : Burak Yeter
Genre                          : Electronic
ContentType                    : Music Video
Recorded date                  : 2021-08-20 07:00:00 UTC
Writing application            : Lavf57.29.101
Copyright                      : ℗ 2021 Connection Records B.V.

Video
ID                             : 1
Format                         : AVC
Format/Info                    : Advanced Video Codec
Format profile                 : High@L4
Format settings                : CABAC / 4 Ref Frames
Format settings, CABAC         : Yes
Format settings, Reference fra : 4 frames
Codec ID                       : avc1
Codec ID/Info                  : Advanced Video Coding
Duration                       : 2 min 42 s
Bit rate                       : 10.0 Mb/s
Width                          : 1 920 pixels
Height                         : 1 080 pixels
Display aspect ratio           : 16:9
Frame rate mode                : Constant
Frame rate                     : 24.000 FPS
Color space                    : YUV
Chroma subsampling             : 4:2:0
Bit depth                      : 8 bits
Scan type                      : Progressive
Bits/(Pixel*Frame)             : 0.202
Stream size                    : 195 MiB (97%)
Color range                    : Limited
Color primaries                : BT.709
Transfer characteristics       : BT.709
Matrix coefficients            : BT.709
Codec configuration box        : avcC

Audio
ID                             : 2
Format                         : AAC LC
Format/Info                    : Advanced Audio Codec Low Complexity
Codec ID                       : mp4a-40-2
Duration                       : 2 min 42 s
Bit rate mode                  : Constant
Bit rate                       : 259 kb/s
Channel(s)                     : 2 channels
Channel layout                 : L R
Sampling rate                  : 48.0 kHz
Frame rate                     : 46.875 FPS (1024 SPF)
Compression mode               : Lossy
Stream size                    : 5.04 MiB (3%)
Default                        : Yes
Alternate group                : 1

</pre>
</div>
<div class="bbCodeBlock bbCodeVfcHH HiddenContent">
<div class="attribution type">Hidden Content:</div>
<blockquote>You must either reply or click 'Like' to see the hidden information contained here.</blockquote>
</div>
<div class="messageTextEndMarker">&nbsp;</div>
</blockquote>
</article>]]></description>
                <author><![CDATA[vitalya3]]></author>
                </item>

                
                <item>
                <title><![CDATA[【Requests】[REQ AUD] - Doja Cat (Streets Remixes), Once Upon a Time &amp; Pearl (Qobuz Lossless)]]></title>
                <link><![CDATA[https://sharemania.us/threads/doja-cat-streets-remixes-once-upon-a-time-pearl-qobuz-lossless.224644/]]></link>
                <description><![CDATA[<article>
<blockquote class="messageText SelectQuoteContainer ugc baseHtml">
Hello,<br>
<br>
Can someone please help me with the below? I just updated my requests with Limperatrice's Submarine. <br>
<br>
<a href="https://www.qobuz.com/ie-en/album/streets-remixes-doja-cat/pc9j5woh5m8pb" target="_blank" class="externalLink" rel="nofollow">https://www.qobuz.com/ie-en/album/streets-remixes-doja-cat/pc9j5woh5m8pb</a><br>
<a href="https://www.qobuz.com/ie-en/album/one-upon-a-time-main-theme-geek-music/0191079474066" target="_blank" class="externalLink" rel="nofollow">https://www.qobuz.com/ie-en/album/one-upon-a-time-main-theme-geek-music/0191079474066</a><br>
<a href="https://www.qobuz.com/us-en/album/closer-pearl/txznfg9mpibrc" target="_blank" class="externalLink" rel="nofollow">https://www.qobuz.com/us-en/album/closer-pearl/txznfg9mpibrc</a><br>
<a href="https://www.qobuz.com/us-en/album/submarine-limperatrice/is1a59dfy42wb" target="_blank" class="externalLink" rel="nofollow">https://www.qobuz.com/us-en/album/submarine-limperatrice/is1a59dfy42wb</a><br>
<br>
Thank you.
<div class="messageTextEndMarker">&nbsp;</div>
</blockquote>
</article>]]></description>
                <author><![CDATA[Lordfunkbox69]]></author>
                </item>

                
                <item>
                <title><![CDATA[【Music Videos】Taio Cruz - Dynamite 1080p (Dj Hope Epic Party Intro) (DJ Kevin West Vid) (Extended)]]></title>
                <link><![CDATA[https://sharemania.us/threads/taio-cruz-dynamite-1080p-dj-hope-epic-party-intro-dj-kevin-west-vid-extended.224646/]]></link>
                <description><![CDATA[<article>
<blockquote class="messageText SelectQuoteContainer ugc baseHtml">
<img src="https://i.imgur.com/acaey1U.jpg" class="bbCodeImage LbImage" alt="[​IMG]" data-url="https://i.imgur.com/acaey1U.jpg" style=""> <br>
<img src="https://i.imgur.com/m8a1EST.jpg" class="bbCodeImage LbImage" alt="[​IMG]" data-url="https://i.imgur.com/m8a1EST.jpg" style=""><b> <br>
Taio Cruz - Dynamite (Dj Hope Epic Party Intro) (DJ Kevin West Vid) (Extended)</b><br>
BPM 120<br>
Ripped From <a href="https://www.vjstreet.com/" target="_blank" class="externalLink" rel="nofollow">vjstreet</a><br>
<b><br>
[/URL]
<div class="bbCodeBlock bbCodeVfcHH HiddenContent">
<div class="attribution type">Hidden Content:</div>
<blockquote>You must reply before you can see the hidden data contained here.</blockquote>
</div></b>
<div class="messageTextEndMarker">&nbsp;</div>
</blockquote>
</article>]]></description>
                <author><![CDATA[gamerfronts]]></author>
                </item>

                </channel></rss>